<svg id="Layer_1" enable-background="new 0 0 512 512" height="512" viewBox="0 0 512 512" width="512" xmlns="http://www.w3.org/2000/svg"><g><path d="m331.876 52.588 88.978-46.317c2.438-1.275 5.045-2.324 7.794-3.175 13.38-4.139 28.885-2.523 42.746 3.572 13.777 6.037 26.107 16.553 33.25 30.273 1.559 3.005 2.892 6.265 3.969 9.694 5.414 17.604 4.024 35.093-2.382 49.918-4.875 11.196-12.586 20.862-22.421 27.921 9.835 7.03 17.546 16.696 22.421 27.893 6.406 14.824 7.796 32.314 2.382 49.917-1.077 3.458-2.41 6.69-3.969 9.724-7.143 13.69-19.473 24.206-33.25 30.273-13.861 6.066-29.366 7.682-42.746 3.543-2.749-.85-5.356-1.898-7.794-3.174l-88.978-46.317c-2.098 0-4.224 0-6.35-.029-80.135-.51-153.211-8.617-209.279-19.672-71.29-14.061-116.247-34.697-116.247-52.158 0-11.141 14.967-22.45 41.471-32.287 23.216-8.588 56.182-16.979 96.064-23.781 4.082-.709 7.936 2.041 8.645 6.123.681 4.053-2.041 7.937-6.123 8.617-38.89 6.66-70.921 14.796-93.371 23.101-20.239 7.512-31.691 13.976-31.691 18.227 0 10.12 40.28 24.859 104.144 37.444 37.275 7.37 82.261 13.38 131.893 16.696l90.169-57.542-13.322-53.461c-26.192.113-51.505 1.049-75.599 2.608-28.007 1.842-54.482 4.535-78.916 7.852-4.081.539-7.852-2.324-8.39-6.435-.567-4.082 2.324-7.852 6.406-8.391 24.859-3.373 51.703-6.123 79.964-7.966 25.881-1.698 52.865-2.662 80.532-2.691zm70.553 299.817 6.974-36.964c.766-4.053 4.648-6.718 8.73-5.953 4.054.737 6.718 4.649 5.981 8.703l-6.633 35.121c8.844.964 17.12 2.637 24.858 4.874l11.99-63.692c.766-4.081 4.678-6.746 8.73-5.981 4.082.766 6.747 4.648 5.982 8.73l-12.415 65.961c20.522 8.533 35.856 21.118 45.013 33.959 4.989 7.002 8.249 14.174 9.609 20.948 1.502 7.427.766 14.456-2.352 20.465-4.422 8.477-13.267 14.485-26.871 16.072v49.067c0 4.139-3.346 7.483-7.484 7.483h-148.986c-4.139 0-7.512-3.345-7.512-7.483v-49.067c-13.607-1.587-22.451-7.596-26.845-16.072-3.315-6.35-3.769-13.52-2.38-20.465 1.36-6.774 4.619-13.946 9.608-20.948 4.11-5.754 9.468-11.451 15.959-16.752l-13.975-32.683c-3.969.396-7.936-.199-11.564-1.645-12.699-5.103-18.822-19.445-13.748-32.145 2.353-5.868 6.945-10.858 13.238-13.522 6.263-2.693 13.01-2.58 18.905-.227 5.868 2.353 10.829 6.973 13.522 13.237 2.665 6.265 2.552 13.04.198 18.907-1.445 3.629-3.741 6.916-6.774 9.525l12.699 29.734c7.767-4.705 16.583-8.844 26.419-12.047l-11.282-59.98c-3.969-.482-7.738-1.899-10.941-4.11-5.244-3.571-9.1-9.126-10.375-15.845-1.247-6.689.313-13.295 3.884-18.51 3.571-5.216 9.128-9.071 15.846-10.347 6.69-1.247 13.294.311 18.51 3.884 5.215 3.571 9.07 9.127 10.346 15.846 1.247 6.689-.311 13.266-3.884 18.481-2.211 3.23-5.159 5.952-8.701 7.852l11.111 58.847c11.366-2.379 23.016-3.428 34.61-3.258zm-2.381 14.966c-20.75 0-41.328 4.167-59.781 13.805-11.622 6.066-22.252 14.315-29.65 24.661-3.203 4.478-5.981 9.752-7.087 15.194-.709 3.543-.737 7.369.964 10.629 2.636 5.074 9.439 8.391 21.061 8.391h57.485c4.167 0 7.512 3.373 7.512 7.512s-3.345 7.483-7.512 7.483h-50.002v41.158h133.991v-41.158h-50.002c-4.139 0-7.512-3.345-7.512-7.483 0-4.139 3.373-7.512 7.512-7.512h57.514c11.594 0 18.425-3.316 21.032-8.391 1.504-2.863 1.787-6.519.965-10.629-.936-4.763-3.346-9.95-7.087-15.194-19.417-27.212-57.401-38.466-89.403-38.466zm-49.549-100.372c-2.069-1.418-4.648-2.041-7.314-1.531-2.636.482-4.818 2.013-6.236 4.082-1.389 2.068-2.012 4.648-1.53 7.313.511 2.637 2.041 4.819 4.082 6.236 4.45 3.033 10.517 1.9 13.55-2.551 1.417-2.069 2.041-4.677 1.53-7.314-.481-2.636-2.013-4.819-4.082-6.235zm-48.841 47.082c-2.296-.907-4.988-.964-7.455.113-2.493 1.049-4.28 3.005-5.215 5.301-2.013 5.017.426 10.686 5.413 12.699 4.989 1.984 10.686-.425 12.671-5.414.936-2.325.992-4.989-.085-7.483-1.048-2.467-3.005-4.282-5.329-5.216zm-269.655 21.713 67.492-38.977v-12.16h-67.492zm67.492 17.49-67.492 38.975v18c0 4.168-3.373 7.513-7.512 7.513s-7.512-3.345-7.512-7.513c0-43.795 0-87.589 0-131.412l-16.157-32.315c-1.843-3.713-.34-8.191 3.345-10.035 1.021-.51 2.183-.821 3.345-.821h237.114c4.139 0 7.512 3.373 7.512 7.512 0 1.445-.425 2.806-1.134 3.968l-15.874 31.691v189.182l15.874 31.719c.709 1.134 1.134 2.494 1.134 3.969 0 4.139-3.373 7.483-7.512 7.483h-237.114c-1.134 0-2.268-.283-3.345-.822-3.685-1.843-5.188-6.321-3.345-10.006l16.157-32.343v-23.782c0-4.139 3.373-7.512 7.512-7.512s7.512 3.373 7.512 7.512v17.972h67.492c0-36.312 0-72.625 0-108.935zm0-39.232-67.492 38.977v21.995l67.492-39.003zm120.641 76.734-105.646 61v10.432h105.646zm-105.646 43.764 105.646-61v-21.968l-34.384 19.842c-3.572 2.041-8.136.822-10.205-2.75-2.041-3.571-.822-8.135 2.778-10.203l41.811-24.151v-21.969l-105.646 61.001v21.94l34.356-19.842c3.6-2.069 8.163-.851 10.232 2.75 2.069 3.571.851 8.135-2.721 10.204l-41.867 24.18zm0-78.488 105.646-60.974v-10.431h-105.646zm162.083-176.03c16.694.766 33.815 1.22 51.306 1.304l10.092-40.477zm-191.166 70.638h-65.791l9.468 18.992h65.819zm147.116 0h-130.419l9.495 18.992h111.429zm-137.62 226.571h-65.819l-9.468 18.963h65.791zm7.201 18.963h130.419l-9.495-18.963h-111.429zm158.624-397.243c7.029 0 13.407 2.836 18.027 7.455 4.621 4.621 7.484 10.999 7.484 18.058 0 7.03-2.863 13.407-7.484 18.028-4.62 4.62-10.998 7.483-18.027 7.483-7.059 0-13.437-2.863-18.057-7.483-4.593-4.621-7.456-10.998-7.456-18.028 0-7.059 2.863-13.436 7.456-18.058 4.62-4.619 10.998-7.455 18.057-7.455zm7.425 18.057c-1.898-1.899-4.535-3.061-7.426-3.061-2.92 0-5.528 1.162-7.428 3.061-1.927 1.928-3.09 4.536-3.09 7.456 0 2.892 1.163 5.527 3.09 7.427 1.899 1.898 4.508 3.061 7.428 3.061 2.891 0 5.527-1.162 7.426-3.061s3.062-4.535 3.062-7.427c0-2.92-1.162-5.528-3.062-7.456zm198.961 14.94h-111.512l-13.209 52.95 85.377 44.446c1.758.906 3.516 1.645 5.272 2.183 9.893 3.062 21.657 1.73 32.372-2.977 10.8-4.733 20.409-12.896 25.907-23.47 1.219-2.353 2.24-4.763 2.977-7.2 4.337-14.031 3.289-27.921-1.785-39.6-5.017-11.564-13.918-21.003-25.399-26.332zm-105.702 38.919 4.535-18.198c.822-3.316 3.827-5.697 7.257-5.697h88.156c1.729 0 3.316.596 4.592 1.588 6.974 4.762 11.679 11.677 14.089 19.416 2.494 8.05 2.494 17.036-.113 25.455-1.475 4.763-4.195 8.958-7.598 12.444-3.656 3.741-8.135 6.718-12.671 8.759-3.43 1.53-8.22 3.005-12.869 3.401-4.167.34-8.447-.113-12.075-2.013l-69.618-36.227c-3.288-1.729-4.762-5.499-3.685-8.928zm17.631-8.902-1.786 7.229 64.374 33.534c.851.425 2.297.51 3.94.368 2.892-.255 5.868-1.162 7.994-2.126 2.891-1.304 5.754-3.175 8.022-5.527 1.871-1.899 3.316-4.082 4.054-6.406 1.701-5.557 1.729-11.424.113-16.668-1.275-4.054-3.543-7.682-6.831-10.403h-79.88zm48.727-142.41-85.377 44.446 13.209 52.95h111.513c11.48-5.328 20.382-14.768 25.398-26.305 5.074-11.706 6.122-25.567 1.785-39.628-.736-2.438-1.758-4.847-2.977-7.172-5.498-10.602-15.107-18.765-25.907-23.498-10.715-4.705-22.479-6.009-32.372-2.976-1.757.568-3.515 1.277-5.272 2.183zm-50.513 60.151 1.786 7.229h79.88c3.288-2.722 5.556-6.35 6.831-10.404 1.616-5.215 1.588-11.111-.113-16.639-.737-2.354-2.183-4.508-4.054-6.436-2.268-2.352-5.131-4.223-8.022-5.527-2.126-.963-5.103-1.871-7.994-2.098-1.644-.141-3.09-.084-3.94.341zm-11.31 16.525-4.535-18.197c-1.077-3.401.396-7.2 3.685-8.901l69.618-36.255c3.628-1.899 7.908-2.353 12.075-2.013 4.65.397 9.439 1.871 12.869 3.402 4.536 2.041 9.015 5.018 12.671 8.759 3.402 3.515 6.123 7.682 7.598 12.472 2.607 8.391 2.607 17.377.113 25.428-2.41 7.766-7.115 14.653-14.089 19.444-1.275.992-2.862 1.559-4.592 1.559h-88.156c-3.373-.001-6.434-2.296-7.257-5.698z"/></g></svg>